<?xml version="1.0" encoding="UTF-8"?>
<svg id="Layer_1" data-name="Layer 1" xmlns="http://www.w3.org/2000/svg" viewBox="0 0 4000 4000">
  <defs>
    <style>
      .cls-1 {
        fill: #87927e;
      }
    </style>
  </defs>
  <path class="cls-1" d="M2163.19,1757.79c-29.44,29.69-75.86,51.41-110.68,75.13-163.52,111.4-323.41,248.65-414.16,427.68l-35.5,1.13,337.52-882.22c23.67-58.92,96.88-76.21,138.79-25.1,36.59,85.78,79.69,172.21,111.41,260.21,20.13,55.84,15.11,100.3-27.39,143.17ZM1696.42,2107.54c22.47-22.34,41.42-48.72,63.11-72.11,67.68-73.02,152.9-143.22,234.38-200.44,45.3-31.81,150.95-84.85,170.62-132.74,10.09-24.56,8.51-40.08.71-64.81-26.02-82.5-76.35-167.03-103.55-250.37-23.68-46.57-74.74-41.54-92.72,5.86l-272.55,714.62Z"/>
  <path class="cls-1" d="M2449.74,2261.75h-35.39l-190.87-470.16c-60.09,67.53-145.31,104.47-211.12,165.5-76.3,70.75-126.58,173.05-84.61,276.81,3.91,9.67,10.45,18.06,13.86,27.85h-37.92c-9.85-28.87-20.86-56.06-22.86-87.11-8.82-137.17,90.01-230.99,191.44-304.26,59.75-43.16,131.33-76.31,156.27-152.18l221.2,543.55Z"/>
  <path class="cls-1" d="M2062.04,1966.76c51.34-3.08,38.96,82.06-11.53,60.92-32.64-13.66-21.13-58.96,11.53-60.92Z"/>
  <g>
    <path class="cls-1" d="M1454.82,2675.46l-81.53-210.9-81.17,210.9h-25.73l94.22-244.6h25.37l94.58,244.6h-25.73Z"/>
    <path class="cls-1" d="M1632.74,2675.82v-245.32h24.64l184.08,208.72v-208.72h24.28v245.32h-24.28l-184.08-210.17v210.17h-24.64Z"/>
    <path class="cls-1" d="M2204.55,2675.46l-81.53-210.9-81.17,210.9h-25.73l94.21-244.6h25.37l94.58,244.6h-25.73Z"/>
    <path class="cls-1" d="M2440.09,2675.46v-222.49h-89.5v-22.1h202.92v22.1h-89.87v222.49h-23.55Z"/>
    <path class="cls-1" d="M2708.97,2675.46v-244.6h24.64v244.6h-24.64Z"/>
  </g>
</svg>